<svg id="logos" xmlns="http://www.w3.org/2000/svg" viewBox="0 0 440 220"><defs><style>.cls-1,.cls-2{fill:#fff;}.cls-2{fill-rule:evenodd;}</style></defs><path class="cls-1" d="M140.83,124.07a15,15,0,0,0,2.28-7.5h-9.69q-.12,3.45-1.89,5a7.48,7.48,0,0,1-5.14,1.59q-4,0-5.61-2.79c-1.07-1.85-1.61-5-1.61-9.28v-2.87c0-4,.65-6.91,1.78-8.73a5.81,5.81,0,0,1,5.33-2.73c2.39,0,4.16.54,5.33,1.62s1.79,2.85,1.86,5.32h9.72A15.38,15.38,0,0,0,138.11,93q-4.47-3.9-11.83-3.9a16.54,16.54,0,0,0-9,2.45,15.77,15.77,0,0,0-6,6.92,24.7,24.7,0,0,0-2.06,10.43v2q0,9.51,4.59,14.73t12.55,5.21a19.88,19.88,0,0,0,8.58-1.78A13.82,13.82,0,0,0,140.83,124.07Z"/><path class="cls-1" d="M177.51,130.31h9.7V89.72h-9.7v16.11H163.16V89.72h-9.75v40.59h9.75v-17h14.35Z"/><path class="cls-1" d="M204.45,121.19a5.28,5.28,0,0,1,3.69,1.34,4.34,4.34,0,0,1,1.48,3.38,4.41,4.41,0,0,1-1.48,3.4,5.84,5.84,0,0,1-7.41,0,4.65,4.65,0,0,1,0-6.75A5.33,5.33,0,0,1,204.45,121.19Z"/><path class="cls-1" d="M252.44,124.07a15,15,0,0,0,2.27-7.5H245q-.11,3.45-1.89,5A7.46,7.46,0,0,1,238,123.2q-4,0-5.61-2.79c-1.07-1.85-1.61-5-1.61-9.28v-2.87q.09-6,1.78-8.73a5.82,5.82,0,0,1,5.33-2.73q3.59,0,5.34,1.62c1.16,1.07,1.78,2.85,1.86,5.32h9.72A15.35,15.35,0,0,0,249.71,93q-4.47-3.9-11.83-3.9a16.59,16.59,0,0,0-9,2.45,15.77,15.77,0,0,0-6,6.92,24.7,24.7,0,0,0-2,10.43v2q0,9.51,4.58,14.73T238,130.87a19.89,19.89,0,0,0,8.59-1.78A13.88,13.88,0,0,0,252.44,124.07Z"/><path class="cls-1" d="M274.76,122.78h17v7.53H265V89.72h9.75Z"/><path class="cls-2" d="M331.8,121.36a23.91,23.91,0,0,0,2.2-10.51V109a23.23,23.23,0,0,0-2.28-10.37,16.46,16.46,0,0,0-6.25-7,17.3,17.3,0,0,0-9.17-2.45A17.52,17.52,0,0,0,307,91.64a16.27,16.27,0,0,0-6.25,7,24.11,24.11,0,0,0-2.17,10.52v2.28A23.44,23.44,0,0,0,301,121.67a16.47,16.47,0,0,0,6.24,6.83,17.67,17.67,0,0,0,9.17,2.37,17.35,17.35,0,0,0,9.19-2.45A16.3,16.3,0,0,0,331.8,121.36ZM322.05,100c1.36,2.08,2,5.14,2,9.17V111c0,3.94-.69,7-2,9.06a6.36,6.36,0,0,1-5.69,3.15A6.44,6.44,0,0,1,310.5,120q-2-3.19-2-9.17l0-3q.4-11,7.74-11A6.41,6.41,0,0,1,322.05,100Z"/><path class="cls-1" d="M376.43,89.72v26.57a15.35,15.35,0,0,1-1.92,7.83,12.41,12.41,0,0,1-5.5,5,19.34,19.34,0,0,1-8.47,1.73q-7.38,0-11.63-3.85t-4.34-10.54V89.72h9.81v27q.17,6.66,6.16,6.66a6,6,0,0,0,4.58-1.67q1.56-1.68,1.56-5.44V89.72Z"/><path class="cls-2" d="M388.23,89.72v40.59h13.3a18.67,18.67,0,0,0,9.5-2.51,17.24,17.24,0,0,0,6.61-6.91,21,21,0,0,0,2.36-10V109a20.57,20.57,0,0,0-2.45-10,16.82,16.82,0,0,0-6.66-6.89,19,19,0,0,0-9.64-2.45ZM398,122.78V97.27h3.27a7.72,7.72,0,0,1,6.56,3c1.5,2,2.25,4.94,2.25,8.86v1.76q0,5.91-2.25,8.92a7.59,7.59,0,0,1-6.45,3Z"/><path class="cls-2" d="M20,130.31H30.47a19.53,19.53,0,0,1,7.29-9,31.11,31.11,0,0,1,6.8-3.64c.66-.26,1.34-.51,2-.73a41.54,41.54,0,0,1,12.8-2,42.49,42.49,0,0,1,8.2.78v14.54h9.75V119.09a29.78,29.78,0,0,1,3.7,2.24,19.44,19.44,0,0,1,7.28,9H98.39c-1.38-6.85-5.82-12.69-11.71-16.91a39.82,39.82,0,0,0-6.44-3.73,45.21,45.21,0,0,0-4.8-1.9,47.68,47.68,0,0,0-5.16-1.39c-.88-.19-1.78-.36-2.68-.5a53.54,53.54,0,0,0-17.58.2L44,89.72H34.83Zm21.67-21.94-2.26-7.28-3,9.64A41.9,41.9,0,0,1,41.67,108.37Z"/><path class="cls-1" d="M58.94,130.31l-4.26-11.57A35.92,35.92,0,0,0,45.59,121l2.88,9.29Z"/><path class="cls-1" d="M67.6,102.36V89.72H83.51q7.2,0,11.25,3.2A10.9,10.9,0,0,1,98.82,102a13.15,13.15,0,0,1-1.73,7,11.84,11.84,0,0,1-5,4.34,36.66,36.66,0,0,0-3.44-2.78c-1.14-.81-2.33-1.58-3.57-2.29A4.66,4.66,0,0,0,87.68,107a6.65,6.65,0,0,0,0-8.19,5.44,5.44,0,0,0-4.17-1.51H77.35v7.48A53,53,0,0,0,67.6,102.36Z"/></svg>