<svg id="logos" xmlns="http://www.w3.org/2000/svg" viewBox="0 0 440 220"><defs><style>.cls-1{fill:#fff;fill-rule:evenodd;}</style></defs><path class="cls-1" d="M387.68,54.28h-6.35c-12.25-9.35-75.64-9-86.85,0H288l-12.65,6.37,125.16,0Zm15.21,9.24-130.23,0-7.07,9.51.08,3.59L322,86.28l0,3.31a16.11,16.11,0,0,0,11.73,7.48l-.07,3,2.33,0,.85,62.42-3.13,4.15v5.78l3.69,2.7h1.19l3.52-2.76,0-5.74L339,162.41l.5-62.44,2.63,0L342,97c7.94-1.73,8.66-3.92,11.77-7.43l-.1-3.31L410,76.17v-3Z"/><path class="cls-1" d="M30,104.13v47.25h3.69a1.37,1.37,0,0,0,1.47-1.22l.29-2.95a12,12,0,0,0,3.82,3.43,11.37,11.37,0,0,0,5.42,1.19,13.34,13.34,0,0,0,5.84-1.25A12.74,12.74,0,0,0,54.92,147a16.27,16.27,0,0,0,2.79-5.55,25.19,25.19,0,0,0,1-7.18,23.42,23.42,0,0,0-.87-6.64,14.46,14.46,0,0,0-2.44-5,10.5,10.5,0,0,0-3.91-3.17,11.7,11.7,0,0,0-5.13-1.09,12.31,12.31,0,0,0-6,1.41,16.84,16.84,0,0,0-4.62,3.78V104.13Zm136.64.45a3.93,3.93,0,0,0-1.57.32,4,4,0,0,0-1.25.9,4.2,4.2,0,0,0-1.19,2.89,4,4,0,0,0,.32,1.57,4.67,4.67,0,0,0,.87,1.28,4,4,0,0,0,1.25.87,4,4,0,0,0,3.14,0,4,4,0,0,0,1.32-.87,4.42,4.42,0,0,0,.9-1.28,3.7,3.7,0,0,0,0-3.14,3.87,3.87,0,0,0-.9-1.32,4.07,4.07,0,0,0-1.32-.9A4,4,0,0,0,166.64,104.58Zm51.19,0A3.74,3.74,0,0,0,215,105.8a4.21,4.21,0,0,0-.87,1.32,4,4,0,0,0,0,3.14,4.67,4.67,0,0,0,.87,1.28,4,4,0,0,0,1.25.87,4,4,0,0,0,3.14,0,3.89,3.89,0,0,0,1.32-.87,4.42,4.42,0,0,0,.9-1.28,3.7,3.7,0,0,0,0-3.14,3.87,3.87,0,0,0-.9-1.32,4,4,0,0,0-1.32-.9A4,4,0,0,0,217.83,104.58Zm-73.9,13.73a12.17,12.17,0,0,0-6.16,1.54,17,17,0,0,0-4.74,4.07l-.52-3.84a1.4,1.4,0,0,0-1.51-1.19h-3.43v43.49h5.74V148a12.42,12.42,0,0,0,3.76,2.83,12.16,12.16,0,0,0,5.13,1,13.15,13.15,0,0,0,5.87-1.28A13.28,13.28,0,0,0,152.5,147a16.54,16.54,0,0,0,2.79-5.36,22.61,22.61,0,0,0,1-6.7,26.69,26.69,0,0,0-.87-7.16,15.09,15.09,0,0,0-2.47-5.19A10.3,10.3,0,0,0,149,119.4a11.77,11.77,0,0,0-5.1-1.09Zm98,0a18,18,0,0,0-6.89,1.28,18.52,18.52,0,0,0-5.81,3.89l1,1.82a3,3,0,0,0,.7.77,1.66,1.66,0,0,0,1,.29,2.57,2.57,0,0,0,1.47-.51c.52-.36,1.12-.76,1.8-1.19a12.6,12.6,0,0,1,2.47-1.18,10,10,0,0,1,3.56-.55,5.86,5.86,0,0,1,4.78,2,8.61,8.61,0,0,1,1.64,5.71v2.53a46.5,46.5,0,0,0-9.37,1,22,22,0,0,0-6.19,2.24,9.18,9.18,0,0,0-3.43,3.18,7,7,0,0,0-1.06,3.69,9.73,9.73,0,0,0,.7,3.85,8,8,0,0,0,2,2.66,8.71,8.71,0,0,0,2.92,1.6,12.11,12.11,0,0,0,3.56.51,14.6,14.6,0,0,0,3.37-.35,13.3,13.3,0,0,0,2.88-.93,14.82,14.82,0,0,0,2.57-1.54,32.13,32.13,0,0,0,2.5-2.12l.64,3.08a1.91,1.91,0,0,0,.71,1.09,2.52,2.52,0,0,0,1.28.26h2.54V130.6a16.26,16.26,0,0,0-.74-5,10.59,10.59,0,0,0-2.18-3.88,9.92,9.92,0,0,0-3.56-2.5,12.3,12.3,0,0,0-4.85-.9Zm-162.74.07a15.46,15.46,0,0,0-6.36,1.25A13.5,13.5,0,0,0,68.1,123a15.08,15.08,0,0,0-3,5.1,19.26,19.26,0,0,0-1,6.35,22.1,22.1,0,0,0,1.16,7.44,15.52,15.52,0,0,0,3.21,5.45,14,14,0,0,0,4.9,3.34,16.87,16.87,0,0,0,6.23,1.12,20.31,20.31,0,0,0,3.56-.32,18.73,18.73,0,0,0,3.46-.9,15.82,15.82,0,0,0,3.18-1.54,11.38,11.38,0,0,0,2.53-2.24l-1.6-2.09a1.26,1.26,0,0,0-1.09-.54,2.51,2.51,0,0,0-1.32.51c-.49.32-1.11.67-1.86,1.06a19.18,19.18,0,0,1-2.69,1.09,12.52,12.52,0,0,1-3.69.48,11.26,11.26,0,0,1-4.17-.74,8.58,8.58,0,0,1-3.21-2.28,11.1,11.1,0,0,1-2.12-3.81,19.4,19.4,0,0,1-.83-5.36H91.42a1.19,1.19,0,0,0,1.09-.45,3.62,3.62,0,0,0,.29-1.79,17.3,17.3,0,0,0-1-6.16,12.71,12.71,0,0,0-2.86-4.56,11.75,11.75,0,0,0-4.3-2.82,14.3,14.3,0,0,0-5.38-1Zm30.59,0a14.32,14.32,0,0,0-4.9.77,10.8,10.8,0,0,0-3.63,2.08,8.77,8.77,0,0,0-3,6.58,8.22,8.22,0,0,0,.7,3.56,7.84,7.84,0,0,0,1.93,2.43,11.28,11.28,0,0,0,2.69,1.67c1,.43,2.06.81,3.11,1.16l3.11,1a13.75,13.75,0,0,1,2.73,1.09,5.66,5.66,0,0,1,1.89,1.51,3.25,3.25,0,0,1,.74,2.21,5,5,0,0,1-.42,2,4.47,4.47,0,0,1-1.21,1.71,6.48,6.48,0,0,1-2.09,1.18,9.18,9.18,0,0,1-2.92.42,10.24,10.24,0,0,1-3.27-.45,12.47,12.47,0,0,1-2.24-1c-.53-.32-1-.65-1.54-1a2.17,2.17,0,0,0-1.22-.45,1.62,1.62,0,0,0-.9.23,1.88,1.88,0,0,0-.61.64L97.42,148a15.83,15.83,0,0,0,4.68,2.85,16.6,16.6,0,0,0,6.16,1.09,15.68,15.68,0,0,0,5.26-.8,11.52,11.52,0,0,0,3.85-2.18,9.3,9.3,0,0,0,2.38-3.3,10.87,10.87,0,0,0,.8-4.17,7,7,0,0,0-.74-3.34,7.09,7.09,0,0,0-1.89-2.37,11.29,11.29,0,0,0-2.7-1.61c-1-.43-2-.81-3.11-1.15s-2.07-.69-3.08-1a17.3,17.3,0,0,1-2.69-1.1,6.45,6.45,0,0,1-1.93-1.44,3.1,3.1,0,0,1-.7-2.08,4,4,0,0,1,.42-1.83,4.5,4.5,0,0,1,1.25-1.51,6,6,0,0,1,2-1,8,8,0,0,1,2.59-.39,9.53,9.53,0,0,1,2.89.39,10.91,10.91,0,0,1,2.08.8c.6.28,1.11.53,1.51.77a2.29,2.29,0,0,0,1.09.35,1.26,1.26,0,0,0,1.19-.7l1.28-2.09a13.4,13.4,0,0,0-4.42-2.76,15.31,15.31,0,0,0-5.75-1Zm85.29,0a13,13,0,0,0-3.24.38,12.3,12.3,0,0,0-2.82,1.06,14.32,14.32,0,0,0-2.5,1.63,19.91,19.91,0,0,0-2.25,2.15l-.45-3.52a1.4,1.4,0,0,0-1.5-1.19h-3.44v32.49h5.75V127.45a15.51,15.51,0,0,1,4-3.3,9.7,9.7,0,0,1,4.74-1.22,6.2,6.2,0,0,1,5.1,2,8.59,8.59,0,0,1,1.7,5.71v20.69H206V130.69a16.89,16.89,0,0,0-.71-5,10.71,10.71,0,0,0-2.08-3.88,8.84,8.84,0,0,0-3.4-2.51,11.61,11.61,0,0,0-4.69-.89Zm83.08,0a12.85,12.85,0,0,0-3.24.38,12.55,12.55,0,0,0-2.83,1.06,15.11,15.11,0,0,0-2.5,1.63,20.69,20.69,0,0,0-2.24,2.15l-.45-3.52a1.41,1.41,0,0,0-1.51-1.19H262v32.49h5.74V127.45a15.68,15.68,0,0,1,4-3.3,9.74,9.74,0,0,1,4.75-1.22,6.2,6.2,0,0,1,5.1,2,8.65,8.65,0,0,1,1.7,5.71v20.69h5.74V130.69a16.89,16.89,0,0,0-.7-5,10.88,10.88,0,0,0-2.09-3.88,8.76,8.76,0,0,0-3.4-2.51,11.59,11.59,0,0,0-4.68-.89Zm-114.35.51v32.49h5.71V118.89Zm51.19,0v32.49h5.71V118.89ZM79.36,122.58a8.64,8.64,0,0,1,3.5.67,7,7,0,0,1,2.6,1.86A7.54,7.54,0,0,1,87.09,128a10.7,10.7,0,0,1,.58,3.62H69.9A11.25,11.25,0,0,1,72.85,125a8.83,8.83,0,0,1,6.51-2.4Zm-34.93.35a7.27,7.27,0,0,1,6.16,2.82c1.46,1.86,2.18,4.78,2.18,8.76q0,6.42-2.43,9.65a8.27,8.27,0,0,1-7,3.24,9.78,9.78,0,0,1-4.14-.86,9.26,9.26,0,0,1-3.43-3V127.84a14.59,14.59,0,0,1,3.82-3.63A9.14,9.14,0,0,1,44.43,122.93Zm97.64,0a8.84,8.84,0,0,1,3.5.67,6.28,6.28,0,0,1,2.59,2.15,10.46,10.46,0,0,1,1.61,3.72,22.73,22.73,0,0,1,.58,5.46c0,4-.82,7.07-2.44,9.23a8.23,8.23,0,0,1-7,3.24,9.72,9.72,0,0,1-4.17-.86,9.29,9.29,0,0,1-3.44-3V127.84a14.38,14.38,0,0,1,3.85-3.63,9.33,9.33,0,0,1,4.91-1.28Zm105.66,13.82v6.74a18.14,18.14,0,0,1-2,1.83,12.85,12.85,0,0,1-2.12,1.38,10.88,10.88,0,0,1-2.34.9,12.44,12.44,0,0,1-2.76.29,8.55,8.55,0,0,1-2.12-.26,5.07,5.07,0,0,1-1.7-.87,4.32,4.32,0,0,1-1.12-1.54,5.31,5.31,0,0,1-.42-2.21,4.16,4.16,0,0,1,.77-2.44,6.35,6.35,0,0,1,2.54-1.89A19,19,0,0,1,241,137.4a45.69,45.69,0,0,1,6.74-.65Z"/></svg>