<svg id="logos" xmlns="http://www.w3.org/2000/svg" viewBox="0 0 440 220"><defs><style>.cls-1{fill:#fff;fill-rule:evenodd;}</style></defs><path class="cls-1" d="M49.32,97.07h0a22.7,22.7,0,0,1,4-1.81,10.63,10.63,0,0,1,3.26-.72,6.77,6.77,0,0,1,4,.9,4.27,4.27,0,0,1,1.08,3.08,25,25,0,0,1-.36,2.89c-.18,1.09-.54,2.35-.72,3.44l-4.16,17.37h11l6-25.33h.18a33,33,0,0,1,4-1.81,10,10,0,0,1,3.07-.54,7.17,7.17,0,0,1,4,.9,4,4,0,0,1,1.27,3.08,25,25,0,0,1-.36,2.89c-.18,1.27-.54,2.35-.72,3.62L80.62,122.4h11l5.43-23.16a12.48,12.48,0,0,0,.36-2.35h0a8.88,8.88,0,0,0,.18-2.17c0-2.72-.72-4.89-2.35-6.34s-4-2.17-7.06-2.17a18.39,18.39,0,0,0-6.51,1.45,48.76,48.76,0,0,0-7.78,4.7l-.54.37-.19-.55A7.56,7.56,0,0,0,70,87.66a10.2,10.2,0,0,0-5.79-1.45,13,13,0,0,0-6,1.27c-1.81.9-4,2.17-6.34,3.62l-.9.54L52,87.12H41.18l-8.33,35.1H43.71Z"/><polygon class="cls-1" points="228.64 87.3 217.79 87.3 209.64 122.4 220.5 122.4 228.64 87.3"/><polygon class="cls-1" points="232.26 73.36 220.68 73.36 218.87 81.33 230.45 81.33 232.26 73.36"/><path class="cls-1" d="M143.05,122.4l5.61-23.88h.18a18.08,18.08,0,0,1,4.53-1.09,33.82,33.82,0,0,1,7.42-.18,6.83,6.83,0,0,1,2.17.36h.72L166,87.48h-2.35a16.85,16.85,0,0,0-6.51,1.45,37.61,37.61,0,0,0-6.52,3.8l-.72.36,1.45-5.79H140.52l-8.32,35.1Z"/><path class="cls-1" d="M105.05,111.54a9.2,9.2,0,0,0-.36,2.18,8.11,8.11,0,0,0-.18,2c0,2.53.72,4.34,2.35,5.43,1.63,1.26,4.53,1.8,8.33,1.8a45.86,45.86,0,0,0,5.24-.18,23.51,23.51,0,0,0,3.8-.72l1.63-6.88h-.36a7,7,0,0,1-2.35.73,17,17,0,0,1-2.54.36,6.57,6.57,0,0,1-3.61-.91c-.91-.54-1.27-1.62-1.27-3.07a12.36,12.36,0,0,1,.36-2.35l.54-2.72L119.71,94h10.86l1.63-6.69H121.34L123.69,77H112.83L110.48,87.3H105.6L104,94h4.88Z"/><path class="cls-1" d="M167.12,121c1.81,1.63,4.16,2.36,7.24,2.36a24.93,24.93,0,0,0,4.34-.37,15,15,0,0,0,3.44-1.08,16.25,16.25,0,0,0,2.89-1.63l3.62-2.17-1.08,4.34h10.85L204,98.34c.18-.55.18-1.09.37-1.81,0-.73.18-1.27.18-1.63a7.06,7.06,0,0,0-3.8-6.52c-2.54-1.44-6.7-2.17-12.31-2.17a67.37,67.37,0,0,0-8.5.54,47.15,47.15,0,0,0-6,1.09l-1.63,7.78h.54c1.27-.36,2.89-.9,5.25-1.63a21.75,21.75,0,0,1,6.51-.9,19.36,19.36,0,0,1,6.52.9,3.55,3.55,0,0,1,2.35,3.62,2.32,2.32,0,0,1-.18,1.09c0,.18-.18.36-.18.54v.36h-.37a100.28,100.28,0,0,0-11.21,1.09,36.71,36.71,0,0,0-8.87,2.35,15.37,15.37,0,0,0-6,4.52,12.47,12.47,0,0,0-2,7.06A6.71,6.71,0,0,0,167.12,121Zm9.77-11.76a7.35,7.35,0,0,1,3.26-2.17,25.86,25.86,0,0,1,4.7-1.08q2.72-.28,6-.55h.55l-2,8.33-.18.18a15.84,15.84,0,0,1-3.8,2,10.8,10.8,0,0,1-3.8.72,11.6,11.6,0,0,1-4.17-.72,3.09,3.09,0,0,1-1.63-2.9A5.07,5.07,0,0,1,176.89,109.19Z"/><polygon class="cls-1" points="243.12 122.4 254.7 73.36 243.84 73.36 232.26 122.4 243.12 122.4"/><path class="cls-1" d="M319.84,56.9V84H289.26L253.61,132.9H30.32v10.85H319.84V132.9H267.55l27.68-37.82h24.61V132.9h54.29v10.85H319.84v19.91h90.48V56.9Zm54.29,38H319.84V84h54.29Z"/></svg>